<svg width="284" height="115" viewBox="0 0 284 115" fill="none" xmlns="http://www.w3.org/2000/svg">
<path d="M6.16 50C5.69333 50 5.27333 49.8367 4.9 49.51C4.52667 49.1367 4.34 48.6933 4.34 48.18V2.82C4.34 2.30666 4.52667 1.88666 4.9 1.56C5.27333 1.18666 5.69333 0.999997 6.16 0.999997H28.49C32.7367 0.999997 36.2133 1.56 38.92 2.68C41.6267 3.8 43.6333 5.41 44.94 7.51C46.2467 9.61 46.9 12.2 46.9 15.28C46.9 16.8667 46.5733 18.29 45.92 19.55C45.3133 20.7633 44.5667 21.79 43.68 22.63C42.7933 23.4233 41.9533 24.0067 41.16 24.38C42.98 25.1733 44.5667 26.5267 45.92 28.44C47.2733 30.3067 47.95 32.4533 47.95 34.88C47.95 38.1467 47.2033 40.9 45.71 43.14C44.2633 45.38 42.14 47.0833 39.34 48.25C36.5867 49.4167 33.2033 50 29.19 50H6.16ZM19.39 39.43H27.58C29.1667 39.43 30.3333 38.9633 31.08 38.03C31.8267 37.05 32.2 35.9767 32.2 34.81C32.2 33.5967 31.8033 32.5467 31.01 31.66C30.2167 30.7267 29.0733 30.26 27.58 30.26H19.39V39.43ZM19.39 19.97H26.88C28.3733 19.97 29.47 19.55 30.17 18.71C30.87 17.87 31.22 16.89 31.22 15.77C31.22 14.65 30.87 13.67 30.17 12.83C29.47 11.99 28.3733 11.57 26.88 11.57H19.39V19.97ZM65.2225 50.7C62.6558 50.7 60.3458 50.21 58.2925 49.23C56.2858 48.25 54.6992 46.9433 53.5325 45.31C52.4125 43.63 51.8525 41.7633 51.8525 39.71C51.8525 36.35 53.2058 33.7133 55.9125 31.8C58.6658 29.84 62.3292 28.4867 66.9025 27.74L74.9525 26.48V25.99C74.9525 24.5433 74.7192 23.47 74.2525 22.77C73.8325 22.0233 72.9225 21.65 71.5225 21.65C70.5425 21.65 69.7492 21.8367 69.1425 22.21C68.5358 22.5833 67.9758 23.12 67.4625 23.82C66.9958 24.3333 66.3892 24.59 65.6425 24.59H55.7725C55.2592 24.59 54.8625 24.45 54.5825 24.17C54.3025 23.89 54.1858 23.5167 54.2325 23.05C54.2792 22.21 54.6292 21.23 55.2825 20.11C55.9358 18.9433 56.9392 17.8233 58.2925 16.75C59.6925 15.63 61.4892 14.72 63.6825 14.02C65.8758 13.2733 68.5125 12.9 71.5925 12.9C74.7192 12.9 77.4025 13.25 79.6425 13.95C81.8825 14.65 83.7258 15.63 85.1725 16.89C86.6192 18.15 87.6925 19.69 88.3925 21.51C89.0925 23.2833 89.4425 25.2667 89.4425 27.46V48.18C89.4425 48.6933 89.2558 49.1367 88.8825 49.51C88.5558 49.8367 88.1358 50 87.6225 50H77.4025C76.9358 50 76.5158 49.8367 76.1425 49.51C75.7692 49.1367 75.5825 48.6933 75.5825 48.18V45.94C74.9758 46.8733 74.1592 47.69 73.1325 48.39C72.1525 49.09 70.9858 49.65 69.6325 50.07C68.3258 50.49 66.8558 50.7 65.2225 50.7ZM69.2825 41.53C70.4492 41.53 71.4525 41.2967 72.2925 40.83C73.1792 40.3167 73.8792 39.5467 74.3925 38.52C74.9058 37.4933 75.1625 36.21 75.1625 34.67V34.18L70.1225 35.16C68.3958 35.4867 67.1825 35.9767 66.4825 36.63C65.7825 37.2367 65.4325 37.9133 65.4325 38.66C65.4325 39.22 65.5958 39.71 65.9225 40.13C66.2492 40.55 66.6925 40.9 67.2525 41.18C67.8592 41.4133 68.5358 41.53 69.2825 41.53ZM114.044 50.7C110.544 50.7 107.394 50.0933 104.594 48.88C101.84 47.62 99.6237 45.8 97.9437 43.42C96.3103 40.9933 95.4003 38.0767 95.2137 34.67C95.167 33.9233 95.1437 32.99 95.1437 31.87C95.1437 30.75 95.167 29.7933 95.2137 29C95.4003 25.5467 96.3103 22.63 97.9437 20.25C99.577 17.8233 101.794 16.0033 104.594 14.79C107.394 13.53 110.544 12.9 114.044 12.9C117.497 12.9 120.437 13.39 122.864 14.37C125.337 15.35 127.32 16.5633 128.814 18.01C130.354 19.4567 131.497 20.9033 132.244 22.35C132.99 23.7967 133.387 25.01 133.434 25.99C133.48 26.5033 133.294 26.9467 132.874 27.32C132.5 27.6933 132.08 27.88 131.614 27.88H120.344C119.83 27.88 119.434 27.7633 119.154 27.53C118.874 27.25 118.617 26.8767 118.384 26.41C117.917 25.3833 117.38 24.6367 116.774 24.17C116.167 23.6567 115.35 23.4 114.324 23.4C112.877 23.4 111.804 23.9133 111.104 24.94C110.404 25.92 110.03 27.39 109.984 29.35C109.89 31.31 109.89 32.9667 109.984 34.32C110.077 36.3267 110.45 37.82 111.104 38.8C111.804 39.7333 112.877 40.2 114.324 40.2C115.49 40.2 116.354 39.9667 116.914 39.5C117.474 38.9867 117.964 38.2167 118.384 37.19C118.57 36.7233 118.804 36.3733 119.084 36.14C119.41 35.86 119.83 35.72 120.344 35.72H131.614C132.08 35.72 132.5 35.9067 132.874 36.28C133.294 36.6533 133.48 37.0967 133.434 37.61C133.387 38.2633 133.13 39.15 132.664 40.27C132.244 41.3433 131.567 42.4867 130.634 43.7C129.747 44.8667 128.557 45.9867 127.064 47.06C125.57 48.1333 123.75 49.02 121.604 49.72C119.457 50.3733 116.937 50.7 114.044 50.7ZM140.675 50C140.162 50 139.718 49.8367 139.345 49.51C139.018 49.1367 138.855 48.6933 138.855 48.18V2.12C138.855 1.60666 139.018 1.18666 139.345 0.859998C139.718 0.486664 140.162 0.299997 140.675 0.299997H150.825C151.338 0.299997 151.758 0.486664 152.085 0.859998C152.458 1.18666 152.645 1.60666 152.645 2.12V25.22L160.625 14.79C160.812 14.5567 161.068 14.3 161.395 14.02C161.722 13.74 162.188 13.6 162.795 13.6H174.555C175.022 13.6 175.395 13.7633 175.675 14.09C176.002 14.37 176.165 14.7433 176.165 15.21C176.165 15.3967 176.118 15.6067 176.025 15.84C175.978 16.0733 175.885 16.2367 175.745 16.33L164.615 29.98L177.495 47.34C177.728 47.7133 177.845 48.0633 177.845 48.39C177.845 48.8567 177.682 49.2533 177.355 49.58C177.075 49.86 176.702 50 176.235 50H164.055C163.355 50 162.842 49.86 162.515 49.58C162.235 49.2533 161.978 48.9967 161.745 48.81L152.645 36.21V48.18C152.645 48.6933 152.458 49.1367 152.085 49.51C151.758 49.8367 151.338 50 150.825 50H140.675Z" fill="white"/>
<path d="M63.16 114C62.6933 114 62.2733 113.837 61.9 113.51C61.5267 113.137 61.34 112.693 61.34 112.18V66.82C61.34 66.3067 61.5267 65.8867 61.9 65.56C62.2733 65.1867 62.6933 65 63.16 65H85.49C89.7367 65 93.2133 65.56 95.92 66.68C98.6267 67.8 100.633 69.41 101.94 71.51C103.247 73.61 103.9 76.2 103.9 79.28C103.9 80.8667 103.573 82.29 102.92 83.55C102.313 84.7633 101.567 85.79 100.68 86.63C99.7933 87.4233 98.9533 88.0067 98.16 88.38C99.98 89.1733 101.567 90.5267 102.92 92.44C104.273 94.3067 104.95 96.4533 104.95 98.88C104.95 102.147 104.203 104.9 102.71 107.14C101.263 109.38 99.14 111.083 96.34 112.25C93.5867 113.417 90.2033 114 86.19 114H63.16ZM76.39 103.43H84.58C86.1667 103.43 87.3333 102.963 88.08 102.03C88.8267 101.05 89.2 99.9767 89.2 98.81C89.2 97.5967 88.8033 96.5467 88.01 95.66C87.2167 94.7267 86.0733 94.26 84.58 94.26H76.39V103.43ZM76.39 83.97H83.88C85.3733 83.97 86.47 83.55 87.17 82.71C87.87 81.87 88.22 80.89 88.22 79.77C88.22 78.65 87.87 77.67 87.17 76.83C86.47 75.99 85.3733 75.57 83.88 75.57H76.39V83.97ZM122.223 114.7C119.656 114.7 117.346 114.21 115.293 113.23C113.286 112.25 111.699 110.943 110.533 109.31C109.413 107.63 108.853 105.763 108.853 103.71C108.853 100.35 110.206 97.7133 112.913 95.8C115.666 93.84 119.329 92.4867 123.903 91.74L131.953 90.48V89.99C131.953 88.5433 131.719 87.47 131.253 86.77C130.833 86.0233 129.923 85.65 128.523 85.65C127.543 85.65 126.749 85.8367 126.143 86.21C125.536 86.5833 124.976 87.12 124.463 87.82C123.996 88.3333 123.389 88.59 122.643 88.59H112.773C112.259 88.59 111.863 88.45 111.583 88.17C111.303 87.89 111.186 87.5167 111.233 87.05C111.279 86.21 111.629 85.23 112.283 84.11C112.936 82.9433 113.939 81.8233 115.293 80.75C116.693 79.63 118.489 78.72 120.683 78.02C122.876 77.2733 125.513 76.9 128.593 76.9C131.719 76.9 134.403 77.25 136.643 77.95C138.883 78.65 140.726 79.63 142.173 80.89C143.619 82.15 144.693 83.69 145.393 85.51C146.093 87.2833 146.443 89.2667 146.443 91.46V112.18C146.443 112.693 146.256 113.137 145.882 113.51C145.556 113.837 145.136 114 144.623 114H134.403C133.936 114 133.516 113.837 133.143 113.51C132.769 113.137 132.583 112.693 132.583 112.18V109.94C131.976 110.873 131.159 111.69 130.133 112.39C129.153 113.09 127.986 113.65 126.633 114.07C125.326 114.49 123.856 114.7 122.223 114.7ZM126.283 105.53C127.449 105.53 128.453 105.297 129.293 104.83C130.179 104.317 130.879 103.547 131.393 102.52C131.906 101.493 132.163 100.21 132.163 98.67V98.18L127.123 99.16C125.396 99.4867 124.183 99.9767 123.483 100.63C122.783 101.237 122.433 101.913 122.433 102.66C122.433 103.22 122.596 103.71 122.923 104.13C123.249 104.55 123.693 104.9 124.253 105.18C124.859 105.413 125.536 105.53 126.283 105.53ZM171.044 114.7C167.544 114.7 164.394 114.093 161.594 112.88C158.84 111.62 156.624 109.8 154.944 107.42C153.31 104.993 152.4 102.077 152.214 98.67C152.167 97.9233 152.144 96.99 152.144 95.87C152.144 94.75 152.167 93.7933 152.214 93C152.4 89.5467 153.31 86.63 154.944 84.25C156.577 81.8233 158.794 80.0033 161.594 78.79C164.394 77.53 167.544 76.9 171.044 76.9C174.497 76.9 177.437 77.39 179.864 78.37C182.337 79.35 184.32 80.5633 185.814 82.01C187.354 83.4567 188.497 84.9033 189.244 86.35C189.99 87.7967 190.387 89.01 190.434 89.99C190.48 90.5033 190.294 90.9467 189.874 91.32C189.5 91.6933 189.08 91.88 188.614 91.88H177.344C176.83 91.88 176.434 91.7633 176.154 91.53C175.874 91.25 175.617 90.8767 175.384 90.41C174.917 89.3833 174.38 88.6367 173.774 88.17C173.167 87.6567 172.35 87.4 171.324 87.4C169.877 87.4 168.804 87.9133 168.104 88.94C167.404 89.92 167.03 91.39 166.984 93.35C166.89 95.31 166.89 96.9667 166.984 98.32C167.077 100.327 167.45 101.82 168.104 102.8C168.804 103.733 169.877 104.2 171.324 104.2C172.49 104.2 173.354 103.967 173.914 103.5C174.474 102.987 174.964 102.217 175.384 101.19C175.57 100.723 175.804 100.373 176.084 100.14C176.41 99.86 176.83 99.72 177.344 99.72H188.614C189.08 99.72 189.5 99.9067 189.874 100.28C190.294 100.653 190.48 101.097 190.434 101.61C190.387 102.263 190.13 103.15 189.664 104.27C189.244 105.343 188.567 106.487 187.634 107.7C186.747 108.867 185.557 109.987 184.064 111.06C182.57 112.133 180.75 113.02 178.604 113.72C176.457 114.373 173.937 114.7 171.044 114.7ZM197.675 114C197.162 114 196.718 113.837 196.345 113.51C196.018 113.137 195.855 112.693 195.855 112.18V66.12C195.855 65.6067 196.018 65.1867 196.345 64.86C196.718 64.4867 197.162 64.3 197.675 64.3H207.825C208.338 64.3 208.758 64.4867 209.085 64.86C209.458 65.1867 209.645 65.6067 209.645 66.12V89.22L217.625 78.79C217.812 78.5567 218.068 78.3 218.395 78.02C218.722 77.74 219.188 77.6 219.795 77.6H231.555C232.022 77.6 232.395 77.7633 232.675 78.09C233.002 78.37 233.165 78.7433 233.165 79.21C233.165 79.3967 233.118 79.6067 233.025 79.84C232.978 80.0733 232.885 80.2367 232.745 80.33L221.615 93.98L234.495 111.34C234.728 111.713 234.845 112.063 234.845 112.39C234.845 112.857 234.682 113.253 234.355 113.58C234.075 113.86 233.702 114 233.235 114H221.055C220.355 114 219.842 113.86 219.515 113.58C219.235 113.253 218.978 112.997 218.745 112.81L209.645 100.21V112.18C209.645 112.693 209.458 113.137 209.085 113.51C208.758 113.837 208.338 114 207.825 114H197.675Z" fill="white"/>
<path d="M214.01 50C213.497 50 213.053 49.8367 212.68 49.51C212.353 49.1367 212.19 48.6933 212.19 48.18V14.02H200.15C199.637 14.02 199.193 13.8567 198.82 13.53C198.493 13.1567 198.33 12.7133 198.33 12.2V2.82C198.33 2.30666 198.493 1.88666 198.82 1.56C199.193 1.18666 199.637 0.999997 200.15 0.999997H239.49C240.003 0.999997 240.423 1.18666 240.75 1.56C241.123 1.88666 241.31 2.30666 241.31 2.82V12.2C241.31 12.7133 241.123 13.1567 240.75 13.53C240.423 13.8567 240.003 14.02 239.49 14.02H227.45V48.18C227.45 48.6933 227.263 49.1367 226.89 49.51C226.563 49.8367 226.143 50 225.63 50H214.01ZM258.627 50.7C254.52 50.7 251.043 50.0933 248.197 48.88C245.397 47.6667 243.25 45.8933 241.757 43.56C240.263 41.18 239.423 38.3333 239.237 35.02C239.19 34.04 239.167 32.9667 239.167 31.8C239.167 30.6333 239.19 29.56 239.237 28.58C239.423 25.22 240.31 22.3733 241.897 20.04C243.483 17.7067 245.677 15.9333 248.477 14.72C251.323 13.5067 254.707 12.9 258.627 12.9C262.547 12.9 265.907 13.5067 268.707 14.72C271.553 15.9333 273.77 17.7067 275.357 20.04C276.943 22.3733 277.83 25.22 278.017 28.58C278.11 29.56 278.157 30.6333 278.157 31.8C278.157 32.9667 278.11 34.04 278.017 35.02C277.83 38.3333 276.99 41.18 275.497 43.56C274.003 45.8933 271.833 47.6667 268.987 48.88C266.187 50.0933 262.733 50.7 258.627 50.7ZM258.627 40.83C260.353 40.83 261.543 40.3167 262.197 39.29C262.85 38.2633 263.223 36.7233 263.317 34.67C263.363 33.97 263.387 33.0133 263.387 31.8C263.387 30.5867 263.363 29.63 263.317 28.93C263.223 26.9233 262.85 25.4067 262.197 24.38C261.543 23.3067 260.353 22.77 258.627 22.77C256.947 22.77 255.78 23.3067 255.127 24.38C254.473 25.4067 254.077 26.9233 253.937 28.93C253.89 29.63 253.867 30.5867 253.867 31.8C253.867 33.0133 253.89 33.97 253.937 34.67C254.077 36.7233 254.473 38.2633 255.127 39.29C255.78 40.3167 256.947 40.83 258.627 40.83Z" fill="white"/>
</svg>
