<svg width="82" height="36" viewBox="0 0 82 36" fill="none" xmlns="http://www.w3.org/2000/svg">
<path d="M58.9458 14.9791C58.7991 14.9791 58.6725 14.9325 58.5658 14.8391C58.4725 14.7325 58.4258 14.6058 58.4258 14.4591V4.69913H54.9858C54.8391 4.69913 54.7125 4.65246 54.6058 4.55913C54.5125 4.45246 54.4658 4.32579 54.4658 4.17913V1.49913C54.4658 1.35246 54.5125 1.23246 54.6058 1.13913C54.7125 1.03246 54.8391 0.979125 54.9858 0.979125H66.2258C66.3725 0.979125 66.4925 1.03246 66.5858 1.13913C66.6925 1.23246 66.7458 1.35246 66.7458 1.49913V4.17913C66.7458 4.32579 66.6925 4.45246 66.5858 4.55913C66.4925 4.65246 66.3725 4.69913 66.2258 4.69913H62.7858V14.4591C62.7858 14.6058 62.7325 14.7325 62.6258 14.8391C62.5325 14.9325 62.4125 14.9791 62.2658 14.9791H58.9458ZM71.6935 15.1791C70.5201 15.1791 69.5268 15.0058 68.7135 14.6591C67.9135 14.3125 67.3001 13.8058 66.8735 13.1391C66.4468 12.4591 66.2068 11.6458 66.1535 10.6991C66.1401 10.4191 66.1335 10.1125 66.1335 9.77913C66.1335 9.44579 66.1401 9.13913 66.1535 8.85913C66.2068 7.89913 66.4601 7.08579 66.9135 6.41913C67.3668 5.75246 67.9935 5.24579 68.7935 4.89913C69.6068 4.55246 70.5735 4.37913 71.6935 4.37913C72.8135 4.37913 73.7735 4.55246 74.5735 4.89913C75.3868 5.24579 76.0201 5.75246 76.4735 6.41913C76.9268 7.08579 77.1801 7.89913 77.2335 8.85913C77.2601 9.13913 77.2735 9.44579 77.2735 9.77913C77.2735 10.1125 77.2601 10.4191 77.2335 10.6991C77.1801 11.6458 76.9401 12.4591 76.5135 13.1391C76.0868 13.8058 75.4668 14.3125 74.6535 14.6591C73.8535 15.0058 72.8668 15.1791 71.6935 15.1791ZM71.6935 12.3591C72.1868 12.3591 72.5268 12.2125 72.7135 11.9191C72.9001 11.6258 73.0068 11.1858 73.0335 10.5991C73.0468 10.3991 73.0535 10.1258 73.0535 9.77913C73.0535 9.43246 73.0468 9.15913 73.0335 8.95913C73.0068 8.38579 72.9001 7.95246 72.7135 7.65913C72.5268 7.35246 72.1868 7.19913 71.6935 7.19913C71.2135 7.19913 70.8801 7.35246 70.6935 7.65913C70.5068 7.95246 70.3935 8.38579 70.3535 8.95913C70.3401 9.15913 70.3335 9.43246 70.3335 9.77913C70.3335 10.1258 70.3401 10.3991 70.3535 10.5991C70.3935 11.1858 70.5068 11.6258 70.6935 11.9191C70.8801 12.2125 71.2135 12.3591 71.6935 12.3591Z" fill="white"/>
<path d="M14.0953 33.3749C13.962 33.3749 13.842 33.3282 13.7353 33.2349C13.6287 33.1282 13.5753 33.0015 13.5753 32.8549V19.8949C13.5753 19.7482 13.6287 19.6282 13.7353 19.5349C13.842 19.4282 13.962 19.3749 14.0953 19.3749H20.4753C21.6887 19.3749 22.682 19.5349 23.4553 19.8549C24.2287 20.1749 24.802 20.6349 25.1753 21.2349C25.5487 21.8349 25.7353 22.5749 25.7353 23.4549C25.7353 23.9082 25.642 24.3149 25.4553 24.6749C25.282 25.0215 25.0687 25.3149 24.8153 25.5549C24.562 25.7815 24.322 25.9482 24.0953 26.0549C24.6153 26.2815 25.0687 26.6682 25.4553 27.2149C25.842 27.7482 26.0353 28.3615 26.0353 29.0549C26.0353 29.9882 25.822 30.7749 25.3953 31.4149C24.982 32.0549 24.3753 32.5415 23.5753 32.8749C22.7887 33.2082 21.822 33.3749 20.6753 33.3749H14.0953ZM17.8753 30.3549H20.2153C20.6687 30.3549 21.002 30.2215 21.2153 29.9549C21.4287 29.6749 21.5353 29.3682 21.5353 29.0349C21.5353 28.6882 21.422 28.3882 21.1953 28.1349C20.9687 27.8682 20.642 27.7349 20.2153 27.7349H17.8753V30.3549ZM17.8753 24.7949H20.0153C20.442 24.7949 20.7553 24.6749 20.9553 24.4349C21.1553 24.1949 21.2553 23.9149 21.2553 23.5949C21.2553 23.2749 21.1553 22.9949 20.9553 22.7549C20.7553 22.5149 20.442 22.3949 20.0153 22.3949H17.8753V24.7949ZM30.9703 33.5749C30.237 33.5749 29.577 33.4349 28.9903 33.1549C28.417 32.8749 27.9637 32.5015 27.6303 32.0349C27.3103 31.5549 27.1503 31.0215 27.1503 30.4349C27.1503 29.4749 27.537 28.7215 28.3103 28.1749C29.097 27.6149 30.1437 27.2282 31.4503 27.0149L33.7503 26.6549V26.5149C33.7503 26.1015 33.6837 25.7949 33.5503 25.5949C33.4303 25.3815 33.1703 25.2749 32.7703 25.2749C32.4903 25.2749 32.2637 25.3282 32.0903 25.4349C31.917 25.5415 31.757 25.6949 31.6103 25.8949C31.477 26.0415 31.3037 26.1149 31.0903 26.1149H28.2703C28.1237 26.1149 28.0103 26.0749 27.9303 25.9949C27.8503 25.9149 27.817 25.8082 27.8303 25.6749C27.8437 25.4349 27.9437 25.1549 28.1303 24.8349C28.317 24.5015 28.6037 24.1815 28.9903 23.8749C29.3903 23.5549 29.9037 23.2949 30.5303 23.0949C31.157 22.8815 31.9103 22.7749 32.7903 22.7749C33.6837 22.7749 34.4503 22.8749 35.0903 23.0749C35.7303 23.2749 36.257 23.5549 36.6703 23.9149C37.0837 24.2749 37.3903 24.7149 37.5903 25.2349C37.7903 25.7415 37.8903 26.3082 37.8903 26.9349V32.8549C37.8903 33.0015 37.837 33.1282 37.7303 33.2349C37.637 33.3282 37.517 33.3749 37.3703 33.3749H34.4503C34.317 33.3749 34.197 33.3282 34.0903 33.2349C33.9837 33.1282 33.9303 33.0015 33.9303 32.8549V32.2149C33.757 32.4815 33.5237 32.7149 33.2303 32.9149C32.9503 33.1149 32.617 33.2749 32.2303 33.3949C31.857 33.5149 31.437 33.5749 30.9703 33.5749ZM32.1303 30.9549C32.4637 30.9549 32.7503 30.8882 32.9903 30.7549C33.2437 30.6082 33.4437 30.3882 33.5903 30.0949C33.737 29.8015 33.8103 29.4349 33.8103 28.9949V28.8549L32.3703 29.1349C31.877 29.2282 31.5303 29.3682 31.3303 29.5549C31.1303 29.7282 31.0303 29.9215 31.0303 30.1349C31.0303 30.2949 31.077 30.4349 31.1703 30.5549C31.2637 30.6749 31.3903 30.7749 31.5503 30.8549C31.7237 30.9215 31.917 30.9549 32.1303 30.9549ZM44.9192 33.5749C43.9192 33.5749 43.0192 33.4015 42.2192 33.0549C41.4326 32.6949 40.7992 32.1749 40.3192 31.4949C39.8526 30.8015 39.5926 29.9682 39.5392 28.9949C39.5259 28.7815 39.5192 28.5149 39.5192 28.1949C39.5192 27.8749 39.5259 27.6015 39.5392 27.3749C39.5926 26.3882 39.8526 25.5549 40.3192 24.8749C40.7859 24.1815 41.4192 23.6615 42.2192 23.3149C43.0192 22.9549 43.9192 22.7749 44.9192 22.7749C45.9059 22.7749 46.7459 22.9149 47.4392 23.1949C48.1459 23.4749 48.7126 23.8215 49.1392 24.2349C49.5792 24.6482 49.9059 25.0615 50.1192 25.4749C50.3326 25.8882 50.4459 26.2349 50.4592 26.5149C50.4726 26.6615 50.4192 26.7882 50.2992 26.8949C50.1926 27.0015 50.0726 27.0549 49.9392 27.0549H46.7192C46.5726 27.0549 46.4592 27.0215 46.3792 26.9549C46.2992 26.8749 46.2259 26.7682 46.1592 26.6349C46.0259 26.3415 45.8726 26.1282 45.6992 25.9949C45.5259 25.8482 45.2926 25.7749 44.9992 25.7749C44.5859 25.7749 44.2792 25.9215 44.0792 26.2149C43.8792 26.4949 43.7726 26.9149 43.7592 27.4749C43.7326 28.0349 43.7326 28.5082 43.7592 28.8949C43.7859 29.4682 43.8926 29.8949 44.0792 30.1749C44.2792 30.4415 44.5859 30.5749 44.9992 30.5749C45.3326 30.5749 45.5792 30.5082 45.7392 30.3749C45.8992 30.2282 46.0392 30.0082 46.1592 29.7149C46.2126 29.5815 46.2792 29.4815 46.3592 29.4149C46.4526 29.3349 46.5726 29.2949 46.7192 29.2949H49.9392C50.0726 29.2949 50.1926 29.3482 50.2992 29.4549C50.4192 29.5615 50.4726 29.6882 50.4592 29.8349C50.4459 30.0215 50.3726 30.2749 50.2392 30.5949C50.1192 30.9015 49.9259 31.2282 49.6592 31.5749C49.4059 31.9082 49.0659 32.2282 48.6392 32.5349C48.2126 32.8415 47.6926 33.0949 47.0792 33.2949C46.4659 33.4815 45.7459 33.5749 44.9192 33.5749ZM52.5281 33.3749C52.3815 33.3749 52.2548 33.3282 52.1481 33.2349C52.0548 33.1282 52.0081 33.0015 52.0081 32.8549V19.6949C52.0081 19.5482 52.0548 19.4282 52.1481 19.3349C52.2548 19.2282 52.3815 19.1749 52.5281 19.1749H55.4281C55.5748 19.1749 55.6948 19.2282 55.7881 19.3349C55.8948 19.4282 55.9481 19.5482 55.9481 19.6949V26.2949L58.2281 23.3149C58.2815 23.2482 58.3548 23.1749 58.4481 23.0949C58.5415 23.0149 58.6748 22.9749 58.8481 22.9749H62.2081C62.3415 22.9749 62.4481 23.0215 62.5281 23.1149C62.6215 23.1949 62.6681 23.3015 62.6681 23.4349C62.6681 23.4882 62.6548 23.5482 62.6281 23.6149C62.6148 23.6815 62.5881 23.7282 62.5481 23.7549L59.3681 27.6549L63.0481 32.6149C63.1148 32.7215 63.1481 32.8215 63.1481 32.9149C63.1481 33.0482 63.1015 33.1615 63.0081 33.2549C62.9281 33.3349 62.8215 33.3749 62.6881 33.3749H59.2081C59.0081 33.3749 58.8615 33.3349 58.7681 33.2549C58.6881 33.1615 58.6148 33.0882 58.5481 33.0349L55.9481 29.4349V32.8549C55.9481 33.0015 55.8948 33.1282 55.7881 33.2349C55.6948 33.3282 55.5748 33.3749 55.4281 33.3749H52.5281Z" fill="white"/>
<path d="M1.76 15C1.62667 15 1.50667 14.9533 1.4 14.86C1.29333 14.7533 1.24 14.6267 1.24 14.48V1.52C1.24 1.37333 1.29333 1.25333 1.4 1.16C1.50667 1.05333 1.62667 0.999999 1.76 0.999999H8.14C9.35333 0.999999 10.3467 1.16 11.12 1.48C11.8933 1.8 12.4667 2.26 12.84 2.86C13.2133 3.46 13.4 4.2 13.4 5.08C13.4 5.53333 13.3067 5.94 13.12 6.3C12.9467 6.64667 12.7333 6.94 12.48 7.18C12.2267 7.40667 11.9867 7.57333 11.76 7.68C12.28 7.90667 12.7333 8.29333 13.12 8.84C13.5067 9.37333 13.7 9.98667 13.7 10.68C13.7 11.6133 13.4867 12.4 13.06 13.04C12.6467 13.68 12.04 14.1667 11.24 14.5C10.4533 14.8333 9.48667 15 8.34 15H1.76ZM5.54 11.98H7.88C8.33333 11.98 8.66667 11.8467 8.88 11.58C9.09333 11.3 9.2 10.9933 9.2 10.66C9.2 10.3133 9.08667 10.0133 8.86 9.76C8.63333 9.49333 8.30667 9.36 7.88 9.36H5.54V11.98ZM5.54 6.42H7.68C8.10667 6.42 8.42 6.3 8.62 6.06C8.82 5.82 8.92 5.54 8.92 5.22C8.92 4.9 8.82 4.62 8.62 4.38C8.42 4.14 8.10667 4.02 7.68 4.02H5.54V6.42ZM18.635 15.2C17.9017 15.2 17.2417 15.06 16.655 14.78C16.0817 14.5 15.6283 14.1267 15.295 13.66C14.975 13.18 14.815 12.6467 14.815 12.06C14.815 11.1 15.2017 10.3467 15.975 9.8C16.7617 9.24 17.8083 8.85333 19.115 8.64L21.415 8.28V8.14C21.415 7.72667 21.3483 7.42 21.215 7.22C21.095 7.00667 20.835 6.9 20.435 6.9C20.155 6.9 19.9283 6.95333 19.755 7.06C19.5817 7.16667 19.4217 7.32 19.275 7.52C19.1417 7.66667 18.9683 7.74 18.755 7.74H15.935C15.7883 7.74 15.675 7.7 15.595 7.62C15.515 7.54 15.4817 7.43333 15.495 7.3C15.5083 7.06 15.6083 6.78 15.795 6.46C15.9817 6.12667 16.2683 5.80667 16.655 5.5C17.055 5.18 17.5683 4.92 18.195 4.72C18.8217 4.50667 19.575 4.4 20.455 4.4C21.3483 4.4 22.115 4.5 22.755 4.7C23.395 4.9 23.9217 5.18 24.335 5.54C24.7483 5.9 25.055 6.34 25.255 6.86C25.455 7.36667 25.555 7.93333 25.555 8.56V14.48C25.555 14.6267 25.5017 14.7533 25.395 14.86C25.3017 14.9533 25.1817 15 25.035 15H22.115C21.9817 15 21.8617 14.9533 21.755 14.86C21.6483 14.7533 21.595 14.6267 21.595 14.48V13.84C21.4217 14.1067 21.1883 14.34 20.895 14.54C20.615 14.74 20.2817 14.9 19.895 15.02C19.5217 15.14 19.1017 15.2 18.635 15.2ZM19.795 12.58C20.1283 12.58 20.415 12.5133 20.655 12.38C20.9083 12.2333 21.1083 12.0133 21.255 11.72C21.4017 11.4267 21.475 11.06 21.475 10.62V10.48L20.035 10.76C19.5417 10.8533 19.195 10.9933 18.995 11.18C18.795 11.3533 18.695 11.5467 18.695 11.76C18.695 11.92 18.7417 12.06 18.835 12.18C18.9283 12.3 19.055 12.4 19.215 12.48C19.3883 12.5467 19.5817 12.58 19.795 12.58ZM32.5839 15.2C31.5839 15.2 30.6839 15.0267 29.8839 14.68C29.0972 14.32 28.4639 13.8 27.9839 13.12C27.5172 12.4267 27.2572 11.5933 27.2039 10.62C27.1906 10.4067 27.1839 10.14 27.1839 9.82C27.1839 9.5 27.1906 9.22667 27.2039 9C27.2572 8.01333 27.5172 7.18 27.9839 6.5C28.4506 5.80667 29.0839 5.28667 29.8839 4.94C30.6839 4.58 31.5839 4.4 32.5839 4.4C33.5706 4.4 34.4106 4.54 35.1039 4.82C35.8106 5.1 36.3772 5.44667 36.8039 5.86C37.2439 6.27333 37.5706 6.68667 37.7839 7.1C37.9972 7.51333 38.1106 7.86 38.1239 8.14C38.1372 8.28667 38.0839 8.41333 37.9639 8.52C37.8572 8.62667 37.7372 8.68 37.6039 8.68H34.3839C34.2372 8.68 34.1239 8.64667 34.0439 8.58C33.9639 8.5 33.8906 8.39333 33.8239 8.26C33.6906 7.96667 33.5372 7.75333 33.3639 7.62C33.1906 7.47333 32.9572 7.4 32.6639 7.4C32.2506 7.4 31.9439 7.54667 31.7439 7.84C31.5439 8.12 31.4372 8.54 31.4239 9.1C31.3972 9.66 31.3972 10.1333 31.4239 10.52C31.4506 11.0933 31.5572 11.52 31.7439 11.8C31.9439 12.0667 32.2506 12.2 32.6639 12.2C32.9972 12.2 33.2439 12.1333 33.4039 12C33.5639 11.8533 33.7039 11.6333 33.8239 11.34C33.8772 11.2067 33.9439 11.1067 34.0239 11.04C34.1172 10.96 34.2372 10.92 34.3839 10.92H37.6039C37.7372 10.92 37.8572 10.9733 37.9639 11.08C38.0839 11.1867 38.1372 11.3133 38.1239 11.46C38.1106 11.6467 38.0372 11.9 37.9039 12.22C37.7839 12.5267 37.5906 12.8533 37.3239 13.2C37.0706 13.5333 36.7306 13.8533 36.3039 14.16C35.8772 14.4667 35.3572 14.72 34.7439 14.92C34.1306 15.1067 33.4106 15.2 32.5839 15.2ZM40.1928 15C40.0461 15 39.9195 14.9533 39.8128 14.86C39.7195 14.7533 39.6728 14.6267 39.6728 14.48V1.32C39.6728 1.17333 39.7195 1.05333 39.8128 0.96C39.9195 0.853333 40.0461 0.799999 40.1928 0.799999H43.0928C43.2395 0.799999 43.3595 0.853333 43.4528 0.96C43.5595 1.05333 43.6128 1.17333 43.6128 1.32V7.92L45.8928 4.94C45.9461 4.87333 46.0195 4.8 46.1128 4.72C46.2061 4.64 46.3395 4.6 46.5128 4.6H49.8728C50.0061 4.6 50.1128 4.64667 50.1928 4.74C50.2861 4.82 50.3328 4.92667 50.3328 5.06C50.3328 5.11333 50.3195 5.17333 50.2928 5.24C50.2795 5.30667 50.2528 5.35333 50.2128 5.38L47.0328 9.28L50.7128 14.24C50.7795 14.3467 50.8128 14.4467 50.8128 14.54C50.8128 14.6733 50.7661 14.7867 50.6728 14.88C50.5928 14.96 50.4861 15 50.3528 15H46.8728C46.6728 15 46.5261 14.96 46.4328 14.88C46.3528 14.7867 46.2795 14.7133 46.2128 14.66L43.6128 11.06V14.48C43.6128 14.6267 43.5595 14.7533 43.4528 14.86C43.3595 14.9533 43.2395 15 43.0928 15H40.1928Z" fill="white"/>
</svg>
