<svg width="187" height="51" viewBox="0 0 187 51" fill="none" xmlns="http://www.w3.org/2000/svg">
<path d="M1.76 15C1.62667 15 1.50667 14.9533 1.4 14.86C1.29333 14.7533 1.24 14.6267 1.24 14.48V1.52C1.24 1.37333 1.29333 1.25333 1.4 1.16C1.50667 1.05333 1.62667 0.999999 1.76 0.999999H8.14C9.35333 0.999999 10.3467 1.16 11.12 1.48C11.8933 1.8 12.4667 2.26 12.84 2.86C13.2133 3.46 13.4 4.2 13.4 5.08C13.4 5.53333 13.3067 5.94 13.12 6.3C12.9467 6.64667 12.7333 6.94 12.48 7.18C12.2267 7.40667 11.9867 7.57333 11.76 7.68C12.28 7.90667 12.7333 8.29333 13.12 8.84C13.5067 9.37333 13.7 9.98667 13.7 10.68C13.7 11.6133 13.4867 12.4 13.06 13.04C12.6467 13.68 12.04 14.1667 11.24 14.5C10.4533 14.8333 9.48667 15 8.34 15H1.76ZM5.54 11.98H7.88C8.33333 11.98 8.66667 11.8467 8.88 11.58C9.09333 11.3 9.2 10.9933 9.2 10.66C9.2 10.3133 9.08667 10.0133 8.86 9.76C8.63333 9.49333 8.30667 9.36 7.88 9.36H5.54V11.98ZM5.54 6.42H7.68C8.10667 6.42 8.42 6.3 8.62 6.06C8.82 5.82 8.92 5.54 8.92 5.22C8.92 4.9 8.82 4.62 8.62 4.38C8.42 4.14 8.10667 4.02 7.68 4.02H5.54V6.42ZM18.635 15.2C17.9017 15.2 17.2417 15.06 16.655 14.78C16.0817 14.5 15.6283 14.1267 15.295 13.66C14.975 13.18 14.815 12.6467 14.815 12.06C14.815 11.1 15.2017 10.3467 15.975 9.8C16.7617 9.24 17.8083 8.85333 19.115 8.64L21.415 8.28V8.14C21.415 7.72667 21.3483 7.42 21.215 7.22C21.095 7.00667 20.835 6.9 20.435 6.9C20.155 6.9 19.9283 6.95333 19.755 7.06C19.5817 7.16667 19.4217 7.32 19.275 7.52C19.1417 7.66667 18.9683 7.74 18.755 7.74H15.935C15.7883 7.74 15.675 7.7 15.595 7.62C15.515 7.54 15.4817 7.43333 15.495 7.3C15.5083 7.06 15.6083 6.78 15.795 6.46C15.9817 6.12667 16.2683 5.80667 16.655 5.5C17.055 5.18 17.5683 4.92 18.195 4.72C18.8217 4.50667 19.575 4.4 20.455 4.4C21.3483 4.4 22.115 4.5 22.755 4.7C23.395 4.9 23.9217 5.18 24.335 5.54C24.7483 5.9 25.055 6.34 25.255 6.86C25.455 7.36667 25.555 7.93333 25.555 8.56V14.48C25.555 14.6267 25.5017 14.7533 25.395 14.86C25.3017 14.9533 25.1817 15 25.035 15H22.115C21.9817 15 21.8617 14.9533 21.755 14.86C21.6483 14.7533 21.595 14.6267 21.595 14.48V13.84C21.4217 14.1067 21.1883 14.34 20.895 14.54C20.615 14.74 20.2817 14.9 19.895 15.02C19.5217 15.14 19.1017 15.2 18.635 15.2ZM19.795 12.58C20.1283 12.58 20.415 12.5133 20.655 12.38C20.9083 12.2333 21.1083 12.0133 21.255 11.72C21.4017 11.4267 21.475 11.06 21.475 10.62V10.48L20.035 10.76C19.5417 10.8533 19.195 10.9933 18.995 11.18C18.795 11.3533 18.695 11.5467 18.695 11.76C18.695 11.92 18.7417 12.06 18.835 12.18C18.9283 12.3 19.055 12.4 19.215 12.48C19.3883 12.5467 19.5817 12.58 19.795 12.58ZM32.5839 15.2C31.5839 15.2 30.6839 15.0267 29.8839 14.68C29.0972 14.32 28.4639 13.8 27.9839 13.12C27.5172 12.4267 27.2572 11.5933 27.2039 10.62C27.1906 10.4067 27.1839 10.14 27.1839 9.82C27.1839 9.5 27.1906 9.22667 27.2039 9C27.2572 8.01333 27.5172 7.18 27.9839 6.5C28.4506 5.80667 29.0839 5.28667 29.8839 4.94C30.6839 4.58 31.5839 4.4 32.5839 4.4C33.5706 4.4 34.4106 4.54 35.1039 4.82C35.8106 5.1 36.3772 5.44667 36.8039 5.86C37.2439 6.27333 37.5706 6.68667 37.7839 7.1C37.9972 7.51333 38.1106 7.86 38.1239 8.14C38.1372 8.28667 38.0839 8.41333 37.9639 8.52C37.8572 8.62667 37.7372 8.68 37.6039 8.68H34.3839C34.2372 8.68 34.1239 8.64667 34.0439 8.58C33.9639 8.5 33.8906 8.39333 33.8239 8.26C33.6906 7.96667 33.5372 7.75333 33.3639 7.62C33.1906 7.47333 32.9572 7.4 32.6639 7.4C32.2506 7.4 31.9439 7.54667 31.7439 7.84C31.5439 8.12 31.4372 8.54 31.4239 9.1C31.3972 9.66 31.3972 10.1333 31.4239 10.52C31.4506 11.0933 31.5572 11.52 31.7439 11.8C31.9439 12.0667 32.2506 12.2 32.6639 12.2C32.9972 12.2 33.2439 12.1333 33.4039 12C33.5639 11.8533 33.7039 11.6333 33.8239 11.34C33.8772 11.2067 33.9439 11.1067 34.0239 11.04C34.1172 10.96 34.2372 10.92 34.3839 10.92H37.6039C37.7372 10.92 37.8572 10.9733 37.9639 11.08C38.0839 11.1867 38.1372 11.3133 38.1239 11.46C38.1106 11.6467 38.0372 11.9 37.9039 12.22C37.7839 12.5267 37.5906 12.8533 37.3239 13.2C37.0706 13.5333 36.7306 13.8533 36.3039 14.16C35.8772 14.4667 35.3572 14.72 34.7439 14.92C34.1306 15.1067 33.4106 15.2 32.5839 15.2ZM40.1928 15C40.0461 15 39.9195 14.9533 39.8128 14.86C39.7195 14.7533 39.6728 14.6267 39.6728 14.48V1.32C39.6728 1.17333 39.7195 1.05333 39.8128 0.96C39.9195 0.853333 40.0461 0.799999 40.1928 0.799999H43.0928C43.2395 0.799999 43.3595 0.853333 43.4528 0.96C43.5595 1.05333 43.6128 1.17333 43.6128 1.32V7.92L45.8928 4.94C45.9461 4.87333 46.0195 4.8 46.1128 4.72C46.2061 4.64 46.3395 4.6 46.5128 4.6H49.8728C50.0061 4.6 50.1128 4.64667 50.1928 4.74C50.2861 4.82 50.3328 4.92667 50.3328 5.06C50.3328 5.11333 50.3195 5.17333 50.2928 5.24C50.2795 5.30667 50.2528 5.35333 50.2128 5.38L47.0328 9.28L50.7128 14.24C50.7795 14.3467 50.8128 14.4467 50.8128 14.54C50.8128 14.6733 50.7661 14.7867 50.6728 14.88C50.5928 14.96 50.4861 15 50.3528 15H46.8728C46.6728 15 46.5261 14.96 46.4328 14.88C46.3528 14.7867 46.2795 14.7133 46.2128 14.66L43.6128 11.06V14.48C43.6128 14.6267 43.5595 14.7533 43.4528 14.86C43.3595 14.9533 43.2395 15 43.0928 15H40.1928Z" fill="white"/>
<path d="M15.1711 35C15.0377 35 14.9177 34.9533 14.8111 34.86C14.7044 34.7533 14.6511 34.6267 14.6511 34.48V21.52C14.6511 21.3733 14.7044 21.2533 14.8111 21.16C14.9177 21.0533 15.0377 21 15.1711 21H21.5511C22.7644 21 23.7577 21.16 24.5311 21.48C25.3044 21.8 25.8777 22.26 26.2511 22.86C26.6244 23.46 26.8111 24.2 26.8111 25.08C26.8111 25.5333 26.7177 25.94 26.5311 26.3C26.3577 26.6467 26.1444 26.94 25.8911 27.18C25.6377 27.4067 25.3977 27.5733 25.1711 27.68C25.6911 27.9067 26.1444 28.2933 26.5311 28.84C26.9177 29.3733 27.1111 29.9867 27.1111 30.68C27.1111 31.6133 26.8977 32.4 26.4711 33.04C26.0577 33.68 25.4511 34.1667 24.6511 34.5C23.8644 34.8333 22.8977 35 21.7511 35H15.1711ZM18.9511 31.98H21.2911C21.7444 31.98 22.0777 31.8467 22.2911 31.58C22.5044 31.3 22.6111 30.9933 22.6111 30.66C22.6111 30.3133 22.4977 30.0133 22.2711 29.76C22.0444 29.4933 21.7177 29.36 21.2911 29.36H18.9511V31.98ZM18.9511 26.42H21.0911C21.5177 26.42 21.8311 26.3 22.0311 26.06C22.2311 25.82 22.3311 25.54 22.3311 25.22C22.3311 24.9 22.2311 24.62 22.0311 24.38C21.8311 24.14 21.5177 24.02 21.0911 24.02H18.9511V26.42ZM32.0461 35.2C31.3127 35.2 30.6527 35.06 30.0661 34.78C29.4927 34.5 29.0394 34.1267 28.7061 33.66C28.3861 33.18 28.2261 32.6467 28.2261 32.06C28.2261 31.1 28.6127 30.3467 29.3861 29.8C30.1727 29.24 31.2194 28.8533 32.5261 28.64L34.8261 28.28V28.14C34.8261 27.7267 34.7594 27.42 34.6261 27.22C34.5061 27.0067 34.2461 26.9 33.8461 26.9C33.5661 26.9 33.3394 26.9533 33.1661 27.06C32.9927 27.1667 32.8327 27.32 32.6861 27.52C32.5527 27.6667 32.3794 27.74 32.1661 27.74H29.3461C29.1994 27.74 29.0861 27.7 29.0061 27.62C28.9261 27.54 28.8927 27.4333 28.9061 27.3C28.9194 27.06 29.0194 26.78 29.2061 26.46C29.3927 26.1267 29.6794 25.8067 30.0661 25.5C30.4661 25.18 30.9794 24.92 31.6061 24.72C32.2327 24.5067 32.9861 24.4 33.8661 24.4C34.7594 24.4 35.5261 24.5 36.1661 24.7C36.8061 24.9 37.3327 25.18 37.7461 25.54C38.1594 25.9 38.4661 26.34 38.6661 26.86C38.8661 27.3667 38.9661 27.9333 38.9661 28.56V34.48C38.9661 34.6267 38.9127 34.7533 38.8061 34.86C38.7127 34.9533 38.5927 35 38.4461 35H35.5261C35.3927 35 35.2727 34.9533 35.1661 34.86C35.0594 34.7533 35.0061 34.6267 35.0061 34.48V33.84C34.8327 34.1067 34.5994 34.34 34.3061 34.54C34.0261 34.74 33.6927 34.9 33.3061 35.02C32.9327 35.14 32.5127 35.2 32.0461 35.2ZM33.2061 32.58C33.5394 32.58 33.8261 32.5133 34.0661 32.38C34.3194 32.2333 34.5194 32.0133 34.6661 31.72C34.8127 31.4267 34.8861 31.06 34.8861 30.62V30.48L33.4461 30.76C32.9527 30.8533 32.6061 30.9933 32.4061 31.18C32.2061 31.3533 32.1061 31.5467 32.1061 31.76C32.1061 31.92 32.1527 32.06 32.2461 32.18C32.3394 32.3 32.4661 32.4 32.6261 32.48C32.7994 32.5467 32.9927 32.58 33.2061 32.58ZM45.995 35.2C44.995 35.2 44.095 35.0267 43.295 34.68C42.5083 34.32 41.875 33.8 41.395 33.12C40.9283 32.4267 40.6683 31.5933 40.615 30.62C40.6016 30.4067 40.595 30.14 40.595 29.82C40.595 29.5 40.6016 29.2267 40.615 29C40.6683 28.0133 40.9283 27.18 41.395 26.5C41.8616 25.8067 42.495 25.2867 43.295 24.94C44.095 24.58 44.995 24.4 45.995 24.4C46.9816 24.4 47.8216 24.54 48.515 24.82C49.2216 25.1 49.7883 25.4467 50.215 25.86C50.655 26.2733 50.9816 26.6867 51.195 27.1C51.4083 27.5133 51.5216 27.86 51.535 28.14C51.5483 28.2867 51.495 28.4133 51.375 28.52C51.2683 28.6267 51.1483 28.68 51.015 28.68H47.795C47.6483 28.68 47.535 28.6467 47.455 28.58C47.375 28.5 47.3016 28.3933 47.235 28.26C47.1016 27.9667 46.9483 27.7533 46.775 27.62C46.6016 27.4733 46.3683 27.4 46.075 27.4C45.6616 27.4 45.355 27.5467 45.155 27.84C44.955 28.12 44.8483 28.54 44.835 29.1C44.8083 29.66 44.8083 30.1333 44.835 30.52C44.8616 31.0933 44.9683 31.52 45.155 31.8C45.355 32.0667 45.6616 32.2 46.075 32.2C46.4083 32.2 46.655 32.1333 46.815 32C46.975 31.8533 47.115 31.6333 47.235 31.34C47.2883 31.2067 47.355 31.1067 47.435 31.04C47.5283 30.96 47.6483 30.92 47.795 30.92H51.015C51.1483 30.92 51.2683 30.9733 51.375 31.08C51.495 31.1867 51.5483 31.3133 51.535 31.46C51.5216 31.6467 51.4483 31.9 51.315 32.22C51.195 32.5267 51.0016 32.8533 50.735 33.2C50.4816 33.5333 50.1416 33.8533 49.715 34.16C49.2883 34.4667 48.7683 34.72 48.155 34.92C47.5416 35.1067 46.8216 35.2 45.995 35.2ZM53.6039 35C53.4572 35 53.3306 34.9533 53.2239 34.86C53.1306 34.7533 53.0839 34.6267 53.0839 34.48V21.32C53.0839 21.1733 53.1306 21.0533 53.2239 20.96C53.3306 20.8533 53.4572 20.8 53.6039 20.8H56.5039C56.6506 20.8 56.7706 20.8533 56.8639 20.96C56.9706 21.0533 57.0239 21.1733 57.0239 21.32V27.92L59.3039 24.94C59.3572 24.8733 59.4306 24.8 59.5239 24.72C59.6172 24.64 59.7506 24.6 59.9239 24.6H63.2839C63.4172 24.6 63.5239 24.6467 63.6039 24.74C63.6972 24.82 63.7439 24.9267 63.7439 25.06C63.7439 25.1133 63.7306 25.1733 63.7039 25.24C63.6906 25.3067 63.6639 25.3533 63.6239 25.38L60.4439 29.28L64.1239 34.24C64.1906 34.3467 64.2239 34.4467 64.2239 34.54C64.2239 34.6733 64.1772 34.7867 64.0839 34.88C64.0039 34.96 63.8972 35 63.7639 35H60.2839C60.0839 35 59.9372 34.96 59.8439 34.88C59.7639 34.7867 59.6906 34.7133 59.6239 34.66L57.0239 31.06V34.48C57.0239 34.6267 56.9706 34.7533 56.8639 34.86C56.7706 34.9533 56.6506 35 56.5039 35H53.6039Z" fill="white"/>
<path d="M63.6626 15C63.5159 15 63.3893 14.9533 63.2826 14.86C63.1893 14.7533 63.1426 14.6267 63.1426 14.48V4.72H59.7026C59.5559 4.72 59.4293 4.67333 59.3226 4.58C59.2293 4.47333 59.1826 4.34667 59.1826 4.2V1.52C59.1826 1.37333 59.2293 1.25333 59.3226 1.16C59.4293 1.05333 59.5559 0.999999 59.7026 0.999999H70.9426C71.0893 0.999999 71.2093 1.05333 71.3026 1.16C71.4093 1.25333 71.4626 1.37333 71.4626 1.52V4.2C71.4626 4.34667 71.4093 4.47333 71.3026 4.58C71.2093 4.67333 71.0893 4.72 70.9426 4.72H67.5026V14.48C67.5026 14.6267 67.4493 14.7533 67.3426 14.86C67.2493 14.9533 67.1293 15 66.9826 15H63.6626ZM76.4103 15.2C75.2369 15.2 74.2436 15.0267 73.4303 14.68C72.6303 14.3333 72.0169 13.8267 71.5903 13.16C71.1636 12.48 70.9236 11.6667 70.8703 10.72C70.8569 10.44 70.8503 10.1333 70.8503 9.8C70.8503 9.46667 70.8569 9.16 70.8703 8.88C70.9236 7.92 71.1769 7.10667 71.6303 6.44C72.0836 5.77333 72.7103 5.26667 73.5103 4.92C74.3236 4.57333 75.2903 4.4 76.4103 4.4C77.5303 4.4 78.4903 4.57333 79.2903 4.92C80.1036 5.26667 80.7369 5.77333 81.1903 6.44C81.6436 7.10667 81.8969 7.92 81.9503 8.88C81.9769 9.16 81.9903 9.46667 81.9903 9.8C81.9903 10.1333 81.9769 10.44 81.9503 10.72C81.8969 11.6667 81.6569 12.48 81.2303 13.16C80.8036 13.8267 80.1836 14.3333 79.3703 14.68C78.5703 15.0267 77.5836 15.2 76.4103 15.2ZM76.4103 12.38C76.9036 12.38 77.2436 12.2333 77.4303 11.94C77.6169 11.6467 77.7236 11.2067 77.7503 10.62C77.7636 10.42 77.7703 10.1467 77.7703 9.8C77.7703 9.45333 77.7636 9.18 77.7503 8.98C77.7236 8.40667 77.6169 7.97333 77.4303 7.68C77.2436 7.37333 76.9036 7.22 76.4103 7.22C75.9303 7.22 75.5969 7.37333 75.4103 7.68C75.2236 7.97333 75.1103 8.40667 75.0703 8.98C75.0569 9.18 75.0503 9.45333 75.0503 9.8C75.0503 10.1467 75.0569 10.42 75.0703 10.62C75.1103 11.2067 75.2236 11.6467 75.4103 11.94C75.5969 12.2333 75.9303 12.38 76.4103 12.38Z" fill="white"/>
</svg>
