<svg width="130" height="118" viewBox="0 0 130 118" fill="none" xmlns="http://www.w3.org/2000/svg">
<circle cx="71" cy="59" r="59" fill="#6E0D0D"/>
<circle cx="59" cy="59" r="59" fill="#BE1C1C"/>
<path d="M15.0695 63.6729C14.9037 63.6903 14.7484 63.648 14.6036 63.5459C14.4571 63.4272 14.3742 63.2767 14.3551 63.0944L12.6617 46.9831C12.6426 46.8008 12.6932 46.6447 12.8136 46.5147C12.9322 46.3682 13.0745 46.2862 13.2402 46.2688L21.1715 45.4351C22.6799 45.2766 23.9357 45.3457 24.9388 45.6425C25.942 45.9393 26.7149 46.4362 27.2574 47.1333C27.7999 47.8304 28.1286 48.726 28.2436 49.8199C28.3028 50.3835 28.2399 50.9012 28.0549 51.3732C27.8847 51.8268 27.6579 52.2193 27.3743 52.5508C27.089 52.8656 26.8124 53.1042 26.5445 53.2664C27.2206 53.4803 27.8347 53.9017 28.3868 54.5308C28.9372 55.1433 29.2577 55.8805 29.3482 56.7424C29.4702 57.9027 29.3078 58.9085 28.861 59.7599C28.4308 60.6095 27.7402 61.2937 26.7892 61.8127C25.8548 62.3298 24.6749 62.6633 23.2494 62.8132L15.0695 63.6729ZM19.374 59.4247L22.283 59.1189C22.8465 59.0597 23.2435 58.8504 23.4738 58.491C23.7025 58.1151 23.795 57.7199 23.7514 57.3055C23.7062 56.8745 23.5261 56.5164 23.2112 56.2311C22.8946 55.9292 22.471 55.8061 21.9406 55.8619L19.0317 56.1676L19.374 59.4247ZM18.6475 52.5128L21.3079 52.2331C21.8383 52.1774 22.2121 51.9873 22.4294 51.6628C22.6467 51.3383 22.7344 50.9771 22.6926 50.5793C22.6508 50.1815 22.4899 49.8465 22.2099 49.5743C21.9299 49.3021 21.5247 49.1938 20.9943 49.2496L18.3339 49.5292L18.6475 52.5128ZM36.0738 61.7166C35.1621 61.8124 34.3234 61.7246 33.5575 61.4532C32.8081 61.18 32.1958 60.7752 31.7204 60.2386C31.2599 59.6837 30.9913 59.0416 30.9147 58.3123C30.7892 57.1188 31.1715 56.1318 32.0614 55.3512C32.9662 54.5522 34.2169 53.9348 35.8134 53.4988L38.6256 52.7508L38.6073 52.5767C38.5533 52.0629 38.4303 51.6904 38.2385 51.4592C38.0614 51.2096 37.7242 51.111 37.227 51.1633C36.8789 51.1999 36.6041 51.2958 36.4025 51.451C36.201 51.6063 36.0221 51.8178 35.8659 52.0856C35.7193 52.2853 35.5134 52.3992 35.2482 52.427L31.7425 52.7955C31.5602 52.8147 31.4141 52.7797 31.3042 52.6907C31.1943 52.6017 31.1389 52.4735 31.1381 52.306C31.1233 52.0059 31.211 51.6448 31.4013 51.2226C31.5898 50.7838 31.9043 50.3485 32.3449 49.9168C32.8004 49.4667 33.4046 49.0764 34.1575 48.7459C34.9086 48.3988 35.8312 48.1678 36.9252 48.0528C38.0357 47.9361 39.0019 47.9602 39.8236 48.1252C40.6454 48.2902 41.3367 48.5695 41.8976 48.963C42.4585 49.3565 42.8972 49.8635 43.2137 50.4838C43.5286 51.0875 43.7269 51.7789 43.8088 52.5579L44.5823 59.9174C44.6015 60.0997 44.5517 60.2642 44.4331 60.4107C44.3292 60.5389 44.1862 60.6126 44.0038 60.6318L40.3738 61.0133C40.2081 61.0307 40.0528 60.9884 39.908 60.8863C39.7615 60.7676 39.6786 60.6171 39.6594 60.4348L39.5758 59.6392C39.3952 59.9933 39.1356 60.3139 38.7971 60.6009C38.4751 60.8861 38.0816 61.1285 37.6166 61.3282C37.1682 61.5262 36.6539 61.6557 36.0738 61.7166ZM37.1735 58.308C37.5879 58.2645 37.9356 58.1441 38.2165 57.947C38.5123 57.7316 38.7321 57.432 38.8762 57.0481C39.0202 56.6643 39.0634 56.1989 39.0059 55.6519L38.9876 55.4779L37.2341 56.0141C36.633 56.1946 36.2203 56.4139 35.9961 56.6721C35.7701 56.9137 35.671 57.1671 35.6989 57.4323C35.7198 57.6313 35.7961 57.7992 35.9278 57.9362C36.0595 58.0732 36.2301 58.1809 36.4394 58.2595C36.6636 58.3197 36.9083 58.3359 37.1735 58.308ZM53.4144 59.8941C52.1713 60.0247 51.0298 59.9268 49.99 59.6004C48.965 59.2557 48.1097 58.692 47.4241 57.9093C46.7534 57.1084 46.3213 56.1064 46.1278 54.9034C46.0834 54.6399 46.0402 54.3093 45.9984 53.9115C45.9566 53.5137 45.9292 53.173 45.9162 52.8895C45.8535 51.6559 46.0679 50.586 46.5592 49.6797C47.0487 48.7568 47.7681 48.0276 48.7173 47.4921C49.6648 46.94 50.7601 46.5987 52.0033 46.468C53.2298 46.3391 54.2924 46.4034 55.1909 46.6609C56.106 46.9166 56.8557 47.2735 57.4401 47.7316C58.0411 48.188 58.5012 48.6591 58.8204 49.1451C59.1397 49.631 59.3258 50.0472 59.379 50.3935C59.4147 50.5741 59.365 50.7386 59.2298 50.8868C59.1111 51.0334 58.9689 51.1154 58.8031 51.1328L54.8002 51.5535C54.6178 51.5727 54.4726 51.546 54.3644 51.4736C54.2545 51.3846 54.1494 51.2616 54.0491 51.1046C53.845 50.7573 53.6266 50.5122 53.3937 50.369C53.159 50.2094 52.8594 50.1487 52.4947 50.187C51.9809 50.241 51.6188 50.4634 51.4085 50.8542C51.1965 51.2284 51.1187 51.7645 51.1753 52.4624C51.2153 53.162 51.2772 53.7505 51.3609 54.2277C51.4689 54.9369 51.6573 55.4534 51.9259 55.7771C52.2094 56.0825 52.608 56.2082 53.1219 56.1541C53.5363 56.1106 53.8342 55.9955 54.0157 55.8088C54.1954 55.6056 54.3407 55.3138 54.4516 54.9335C54.5004 54.7607 54.5703 54.6277 54.661 54.5344C54.7666 54.4227 54.9105 54.3573 55.0929 54.3382L59.0958 53.9174C59.2616 53.9 59.4177 53.9506 59.5642 54.0693C59.7274 54.1862 59.8102 54.3367 59.8128 54.5208C59.8206 54.7546 59.7626 55.0791 59.6386 55.4943C59.5295 55.8913 59.3318 56.3226 59.0456 56.7884C58.7742 57.2359 58.3934 57.6781 57.903 58.1151C57.4127 58.5521 56.7994 58.935 56.063 59.2637C55.325 59.5759 54.4421 59.786 53.4144 59.8941ZM62.8473 58.6512C62.665 58.6704 62.5014 58.6289 62.3566 58.5269C62.2266 58.4064 62.1521 58.2551 62.1329 58.0727L60.4134 41.7129C60.3943 41.5305 60.4366 41.3753 60.5404 41.247C60.6591 41.1005 60.8096 41.0176 60.9919 40.9985L64.5971 40.6196C64.7794 40.6004 64.9355 40.651 65.0655 40.7714C65.2103 40.8735 65.2923 41.0157 65.3114 41.1981L66.1738 49.4029L68.6188 45.4004C68.6764 45.3105 68.758 45.2098 68.8636 45.0981C68.9691 44.9865 69.1297 44.9193 69.3452 44.8967L73.5221 44.4577C73.6879 44.4402 73.8266 44.4843 73.9383 44.5899C74.0647 44.6772 74.1367 44.8037 74.1541 44.9694C74.1611 45.0357 74.1523 45.112 74.1279 45.1984C74.12 45.283 74.093 45.3445 74.0467 45.3829L70.6031 50.6467L75.826 56.3319C75.9228 56.4558 75.9773 56.5757 75.9895 56.6918C76.0069 56.8575 75.9637 57.0045 75.8599 57.1327C75.7709 57.2426 75.6435 57.3063 75.4777 57.3237L71.1516 57.7784C70.9029 57.8046 70.7154 57.774 70.5889 57.6867C70.4772 57.5812 70.3765 57.4996 70.2867 57.442L66.5841 53.3064L67.0309 57.5579C67.0501 57.7403 67.0004 57.9047 66.8817 58.0512C66.7779 58.1795 66.6348 58.2532 66.4524 58.2723L62.8473 58.6512ZM86.5682 56.1581C86.3859 56.1772 86.2223 56.1358 86.0775 56.0337C85.9476 55.9133 85.873 55.7619 85.8538 55.5796L84.5786 43.4464L80.3021 43.8959C80.1198 43.915 79.9562 43.8736 79.8114 43.7715C79.6815 43.6511 79.6069 43.4997 79.5877 43.3174L79.2376 39.9857C79.2184 39.8034 79.2607 39.6481 79.3646 39.5199C79.4832 39.3734 79.6337 39.2905 79.8161 39.2714L93.7891 37.8027C93.9714 37.7836 94.1276 37.8342 94.2575 37.9546C94.4023 38.0567 94.4843 38.1989 94.5035 38.3812L94.8537 41.7129C94.8728 41.8952 94.8231 42.0596 94.7044 42.2062C94.6006 42.3344 94.4575 42.4081 94.2752 42.4273L89.9987 42.8767L91.274 55.0099C91.2931 55.1922 91.2434 55.3567 91.1247 55.5032C91.0209 55.6314 90.8778 55.7051 90.6955 55.7243L86.5682 56.1581ZM102.442 54.7411C100.983 54.8944 99.7255 54.8087 98.6691 54.484C97.6293 54.1576 96.8006 53.6079 96.1831 52.8348C95.5638 52.0452 95.1592 51.0655 94.9692 49.8956C94.916 49.5493 94.8677 49.1689 94.8241 48.7545C94.7806 48.3402 94.7488 47.9581 94.7288 47.6082C94.6696 46.4078 94.8783 45.3636 95.3548 44.4756C95.8312 43.5876 96.5441 42.8759 97.4933 42.3404C98.4591 41.8032 99.6382 41.4614 101.03 41.315C102.423 41.1687 103.639 41.2587 104.679 41.5852C105.735 41.9099 106.589 42.457 107.239 43.2265C107.89 43.9961 108.311 44.974 108.503 46.1605C108.573 46.5051 108.629 46.8846 108.673 47.299C108.716 47.7134 108.74 48.0963 108.743 48.4479C108.801 49.6317 108.609 50.6742 108.167 51.5753C107.724 52.4598 107.019 53.1707 106.053 53.7079C105.104 54.2434 103.9 54.5878 102.442 54.7411ZM102.073 51.2354C102.686 51.1709 103.09 50.9442 103.284 50.5551C103.477 50.1661 103.553 49.6052 103.509 48.8724C103.499 48.622 103.472 48.2813 103.427 47.8504C103.381 47.4194 103.337 47.0805 103.295 46.8336C103.187 46.1243 102.997 45.5996 102.727 45.2593C102.455 44.9025 102.012 44.7563 101.399 44.8207C100.802 44.8835 100.408 45.1176 100.216 45.5232C100.022 45.9123 99.9379 46.4658 99.9631 47.1838C99.9726 47.4341 100 47.7748 100.045 48.2058C100.091 48.6367 100.135 48.9756 100.177 49.2225C100.304 49.9466 100.502 50.4788 100.773 50.8191C101.043 51.1593 101.476 51.2981 102.073 51.2354ZM31.9151 81.007C31.7493 81.0244 31.594 80.9821 31.4492 80.88C31.3027 80.7613 31.2198 80.6108 31.2007 80.4285L29.5073 64.3173C29.4881 64.1349 29.5388 63.9788 29.6592 63.8488C29.7778 63.7023 29.9201 63.6203 30.0858 63.6029L38.0171 62.7693C39.5255 62.6107 40.7813 62.6798 41.7844 62.9766C42.7876 63.2734 43.5605 63.7703 44.103 64.4674C44.6455 65.1645 44.9742 66.0601 45.0892 67.154C45.1484 67.7176 45.0855 68.2354 44.9005 68.7073C44.7303 69.1609 44.5035 69.5534 44.2199 69.8849C43.9346 70.1998 43.658 70.4383 43.3901 70.6005C44.0662 70.8144 44.6803 71.2358 45.2324 71.8649C45.7828 72.4774 46.1033 73.2146 46.1938 74.0765C46.3158 75.2368 46.1534 76.2426 45.7066 77.094C45.2764 77.9436 44.5858 78.6279 43.6348 79.1468C42.7004 79.6639 41.5205 79.9974 40.095 80.1473L31.9151 81.007ZM36.2196 76.7588L39.1286 76.453C39.6921 76.3938 40.0891 76.1845 40.3194 75.8251C40.5481 75.4492 40.6406 75.054 40.597 74.6396C40.5517 74.2087 40.3717 73.8505 40.0568 73.5652C39.7402 73.2633 39.3166 73.1402 38.7862 73.196L35.8772 73.5017L36.2196 76.7588ZM35.4931 69.8469L38.1535 69.5673C38.6839 69.5115 39.0577 69.3214 39.275 68.9969C39.4922 68.6724 39.58 68.3113 39.5382 67.9135C39.4964 67.5156 39.3355 67.1806 39.0555 66.9084C38.7755 66.6362 38.3703 66.5279 37.8399 66.5837L35.1795 66.8633L35.4931 69.8469ZM52.9194 79.0507C52.0077 79.1466 51.169 79.0588 50.4031 78.7873C49.6537 78.5142 49.0414 78.1093 48.566 77.5727C48.1055 77.0178 47.8369 76.3757 47.7603 75.6464C47.6348 74.4529 48.0171 73.4659 48.907 72.6853C49.8118 71.8863 51.0625 71.2689 52.659 70.8329L55.4712 70.0849L55.4529 69.9109C55.3989 69.397 55.2759 69.0245 55.084 68.7933C54.907 68.5438 54.5698 68.4451 54.0726 68.4974C53.7245 68.534 53.4497 68.6299 53.2481 68.7851C53.0466 68.9404 52.8677 69.1519 52.7115 69.4197C52.5649 69.6195 52.359 69.7333 52.0938 69.7611L48.5881 70.1296C48.4058 70.1488 48.2597 70.1139 48.1498 70.0249C48.0399 69.9359 47.9845 69.8076 47.9837 69.6401C47.9689 69.34 48.0566 68.9789 48.2469 68.5567C48.4354 68.1179 48.7499 67.6826 49.1905 67.2509C49.646 66.8008 50.2502 66.4105 51.0031 66.08C51.7542 65.7329 52.6768 65.5019 53.7708 65.3869C54.8813 65.2702 55.8475 65.2943 56.6692 65.4593C57.491 65.6243 58.1823 65.9036 58.7432 66.2971C59.304 66.6907 59.7428 67.1976 60.0593 67.8179C60.3742 68.4216 60.5725 69.113 60.6544 69.892L61.4279 77.2515C61.4471 77.4338 61.3973 77.5983 61.2787 77.7448C61.1748 77.873 61.0318 77.9467 60.8494 77.9659L57.2194 78.3474C57.0537 78.3648 56.8984 78.3225 56.7536 78.2204C56.6071 78.1017 56.5242 77.9512 56.505 77.7689L56.4214 76.9733C56.2408 77.3275 55.9812 77.648 55.6427 77.935C55.3207 78.2202 54.9272 78.4626 54.4622 78.6623C54.0138 78.8603 53.4995 78.9898 52.9194 79.0507ZM54.0191 75.6421C54.4335 75.5986 54.7812 75.4782 55.0621 75.2811C55.3579 75.0657 55.5777 74.7661 55.7217 74.3822C55.8657 73.9984 55.909 73.533 55.8515 72.986L55.8332 72.812L54.0797 73.3482C53.4786 73.5287 53.0659 73.748 52.8417 74.0062C52.6157 74.2478 52.5166 74.5013 52.5445 74.7665C52.5654 74.9654 52.6417 75.1333 52.7734 75.2703C52.9051 75.4073 53.0757 75.515 53.285 75.5936C53.5092 75.6538 53.7539 75.67 54.0191 75.6421ZM70.26 77.2282C69.0169 77.3588 67.8754 77.2609 66.8355 76.9345C65.8106 76.5898 64.9553 76.0261 64.2697 75.2435C63.599 74.4425 63.1669 73.4405 62.9734 72.2375C62.929 71.974 62.8858 71.6434 62.844 71.2456C62.8022 70.8478 62.7748 70.5071 62.7617 70.2236C62.6991 68.99 62.9135 67.9201 63.4048 67.0138C63.8943 66.0909 64.6137 65.3617 65.5629 64.8262C66.5104 64.2741 67.6057 63.9328 68.8489 63.8021C70.0754 63.6732 71.138 63.7375 72.0365 63.995C72.9516 64.2507 73.7013 64.6077 74.2857 65.0657C74.8867 65.5221 75.3468 65.9932 75.666 66.4792C75.9853 66.9652 76.1714 67.3813 76.2246 67.7277C76.2603 67.9082 76.2106 68.0727 76.0753 68.221C75.9567 68.3675 75.8145 68.4495 75.6487 68.4669L71.6458 68.8876C71.4634 68.9068 71.3182 68.8802 71.21 68.8077C71.1001 68.7187 70.995 68.5957 70.8947 68.4387C70.6906 68.0914 70.4722 67.8463 70.2393 67.7032C70.0046 67.5435 69.705 67.4828 69.3403 67.5211C68.8265 67.5751 68.4644 67.7975 68.2541 68.1883C68.042 68.5625 67.9643 69.0986 68.0209 69.7965C68.0609 70.4962 68.1228 71.0846 68.2065 71.5618C68.3145 72.271 68.5029 72.7875 68.7715 73.1112C69.055 73.4166 69.4536 73.5423 69.9675 73.4883C70.3819 73.4447 70.6798 73.3296 70.8613 73.1429C71.041 72.9397 71.1863 72.6479 71.2972 72.2676C71.346 72.0949 71.4159 71.9618 71.5066 71.8685C71.6122 71.7569 71.7561 71.6915 71.9384 71.6723L75.9414 71.2516C76.1072 71.2341 76.2633 71.2848 76.4098 71.4034C76.573 71.5204 76.6558 71.6709 76.6584 71.8549C76.6662 72.0887 76.6081 72.4132 76.4842 72.8285C76.3751 73.2254 76.1774 73.6567 75.8912 74.1225C75.6198 74.57 75.239 75.0123 74.7486 75.4492C74.2583 75.8862 73.645 76.2691 72.9086 76.5979C72.1706 76.9101 71.2877 77.1202 70.26 77.2282ZM79.6929 75.9854C79.5106 76.0045 79.347 75.9631 79.2022 75.861C79.0722 75.7406 78.9977 75.5892 78.9785 75.4069L77.259 59.047C77.2399 58.8646 77.2822 58.7094 77.386 58.5811C77.5047 58.4346 77.6552 58.3518 77.8375 58.3326L81.4427 57.9537C81.625 57.9345 81.7811 57.9851 81.9111 58.1055C82.0559 58.2076 82.1379 58.3498 82.157 58.5322L83.0194 66.737L85.4644 62.7345C85.522 62.6446 85.6036 62.5439 85.7092 62.4322C85.8147 62.3206 85.9753 62.2534 86.1908 62.2308L90.3677 61.7918C90.5335 61.7744 90.6722 61.8184 90.7838 61.924C90.9103 62.0113 90.9823 62.1378 90.9997 62.3035C91.0067 62.3698 90.9979 62.4462 90.9735 62.5325C90.9656 62.6171 90.9386 62.6786 90.8923 62.717L87.4487 67.9808L92.6716 73.666C92.7684 73.7899 92.8229 73.9099 92.8351 74.0259C92.8525 74.1916 92.8093 74.3386 92.7055 74.4669C92.6165 74.5768 92.4891 74.6404 92.3233 74.6578L87.9972 75.1125C87.7485 75.1387 87.561 75.1081 87.4345 75.0209C87.3228 74.9153 87.2221 74.8337 87.1323 74.7761L83.4297 70.6405L83.8765 74.8921C83.8957 75.0744 83.846 75.2388 83.7273 75.3854C83.6235 75.5136 83.4804 75.5873 83.298 75.6064L79.6929 75.9854Z" fill="white"/>
</svg>
