<svg width="130" height="39" viewBox="0 0 130 39" fill="none" xmlns="http://www.w3.org/2000/svg">
<rect x="1" y="1" width="128" height="37" rx="6" fill="#BE1C1C" stroke="#6E0D0D" stroke-width="2"/>
<path d="M14.2895 27V14.31H15.5855L20.6795 25.812H20.1575L25.2515 14.31H26.5475V27H25.1795V16.236H25.7195L20.9135 27H19.9235L15.0995 16.236H15.6395V27H14.2895ZM33.5747 27.162C32.1587 27.162 31.0427 26.754 30.2267 25.938C29.4107 25.11 29.0027 23.964 29.0027 22.5C29.0027 21.552 29.1827 20.73 29.5427 20.034C29.9027 19.326 30.4067 18.78 31.0547 18.396C31.7027 18 32.4467 17.802 33.2867 17.802C34.1147 17.802 34.8107 17.976 35.3747 18.324C35.9387 18.672 36.3707 19.17 36.6707 19.818C36.9707 20.454 37.1207 21.21 37.1207 22.086V22.626H30.1187V21.708H36.1667L35.8607 21.942C35.8607 20.982 35.6447 20.232 35.2127 19.692C34.7807 19.152 34.1387 18.882 33.2867 18.882C32.3867 18.882 31.6847 19.2 31.1807 19.836C30.6767 20.46 30.4247 21.306 30.4247 22.374V22.536C30.4247 23.664 30.7007 24.522 31.2527 25.11C31.8167 25.686 32.6027 25.974 33.6107 25.974C34.1507 25.974 34.6547 25.896 35.1227 25.74C35.6027 25.572 36.0587 25.302 36.4907 24.93L36.9947 25.956C36.5987 26.34 36.0947 26.64 35.4827 26.856C34.8827 27.06 34.2467 27.162 33.5747 27.162ZM42.3577 27.162C41.6377 27.162 40.9657 27.066 40.3417 26.874C39.7177 26.67 39.2017 26.388 38.7937 26.028L39.2977 25.002C39.7417 25.35 40.2217 25.608 40.7377 25.776C41.2657 25.944 41.8117 26.028 42.3757 26.028C43.0957 26.028 43.6357 25.902 43.9957 25.65C44.3677 25.386 44.5537 25.026 44.5537 24.57C44.5537 24.222 44.4337 23.946 44.1937 23.742C43.9657 23.526 43.5877 23.358 43.0597 23.238L41.3857 22.896C40.6177 22.728 40.0417 22.446 39.6577 22.05C39.2737 21.642 39.0817 21.126 39.0817 20.502C39.0817 19.974 39.2197 19.512 39.4957 19.116C39.7717 18.708 40.1737 18.39 40.7017 18.162C41.2297 17.922 41.8477 17.802 42.5557 17.802C43.2157 17.802 43.8217 17.904 44.3737 18.108C44.9377 18.3 45.4057 18.582 45.7777 18.954L45.2557 19.962C44.8957 19.614 44.4817 19.356 44.0137 19.188C43.5577 19.008 43.0837 18.918 42.5917 18.918C41.8837 18.918 41.3497 19.062 40.9897 19.35C40.6417 19.626 40.4677 19.992 40.4677 20.448C40.4677 20.796 40.5757 21.084 40.7917 21.312C41.0197 21.528 41.3677 21.69 41.8357 21.798L43.5097 22.14C44.3257 22.32 44.9317 22.602 45.3277 22.986C45.7357 23.358 45.9397 23.862 45.9397 24.498C45.9397 25.038 45.7897 25.512 45.4897 25.92C45.1897 26.316 44.7697 26.622 44.2297 26.838C43.7017 27.054 43.0777 27.162 42.3577 27.162ZM52.9387 27V20.142C52.9387 19.782 52.9267 19.416 52.9027 19.044C52.8907 18.672 52.8667 18.312 52.8307 17.964H54.2347L54.4147 20.16L54.1627 20.178C54.2827 19.638 54.4927 19.194 54.7927 18.846C55.0927 18.498 55.4467 18.24 55.8547 18.072C56.2627 17.892 56.6887 17.802 57.1327 17.802C57.3127 17.802 57.4687 17.808 57.6007 17.82C57.7447 17.832 57.8767 17.862 57.9967 17.91L57.9787 19.206C57.7987 19.146 57.6307 19.11 57.4747 19.098C57.3307 19.074 57.1627 19.062 56.9707 19.062C56.4427 19.062 55.9807 19.188 55.5847 19.44C55.2007 19.692 54.9067 20.016 54.7027 20.412C54.5107 20.808 54.4147 21.228 54.4147 21.672V27H52.9387ZM63.4223 27.162C62.0063 27.162 60.8903 26.754 60.0743 25.938C59.2583 25.11 58.8503 23.964 58.8503 22.5C58.8503 21.552 59.0303 20.73 59.3903 20.034C59.7503 19.326 60.2543 18.78 60.9023 18.396C61.5503 18 62.2943 17.802 63.1343 17.802C63.9623 17.802 64.6583 17.976 65.2223 18.324C65.7863 18.672 66.2183 19.17 66.5183 19.818C66.8183 20.454 66.9683 21.21 66.9683 22.086V22.626H59.9663V21.708H66.0143L65.7083 21.942C65.7083 20.982 65.4923 20.232 65.0603 19.692C64.6283 19.152 63.9863 18.882 63.1343 18.882C62.2343 18.882 61.5323 19.2 61.0283 19.836C60.5243 20.46 60.2723 21.306 60.2723 22.374V22.536C60.2723 23.664 60.5483 24.522 61.1003 25.11C61.6643 25.686 62.4503 25.974 63.4583 25.974C63.9983 25.974 64.5023 25.896 64.9703 25.74C65.4503 25.572 65.9063 25.302 66.3383 24.93L66.8423 25.956C66.4463 26.34 65.9423 26.64 65.3303 26.856C64.7303 27.06 64.0943 27.162 63.4223 27.162ZM62.6123 17.082L64.4663 13.446H66.0323L63.6563 17.082H62.6123ZM72.2053 27.162C71.4853 27.162 70.8133 27.066 70.1893 26.874C69.5653 26.67 69.0493 26.388 68.6413 26.028L69.1453 25.002C69.5893 25.35 70.0693 25.608 70.5853 25.776C71.1133 25.944 71.6593 26.028 72.2233 26.028C72.9433 26.028 73.4833 25.902 73.8433 25.65C74.2153 25.386 74.4013 25.026 74.4013 24.57C74.4013 24.222 74.2813 23.946 74.0413 23.742C73.8133 23.526 73.4353 23.358 72.9073 23.238L71.2333 22.896C70.4653 22.728 69.8893 22.446 69.5053 22.05C69.1213 21.642 68.9293 21.126 68.9293 20.502C68.9293 19.974 69.0673 19.512 69.3433 19.116C69.6193 18.708 70.0213 18.39 70.5493 18.162C71.0773 17.922 71.6953 17.802 72.4033 17.802C73.0633 17.802 73.6693 17.904 74.2213 18.108C74.7853 18.3 75.2533 18.582 75.6253 18.954L75.1033 19.962C74.7433 19.614 74.3293 19.356 73.8613 19.188C73.4053 19.008 72.9313 18.918 72.4393 18.918C71.7313 18.918 71.1973 19.062 70.8373 19.35C70.4893 19.626 70.3153 19.992 70.3153 20.448C70.3153 20.796 70.4233 21.084 70.6393 21.312C70.8673 21.528 71.2153 21.69 71.6833 21.798L73.3573 22.14C74.1733 22.32 74.7793 22.602 75.1753 22.986C75.5833 23.358 75.7873 23.862 75.7873 24.498C75.7873 25.038 75.6373 25.512 75.3373 25.92C75.0373 26.316 74.6173 26.622 74.0773 26.838C73.5493 27.054 72.9253 27.162 72.2053 27.162ZM82.143 27.162C80.727 27.162 79.611 26.754 78.795 25.938C77.979 25.11 77.571 23.964 77.571 22.5C77.571 21.552 77.751 20.73 78.111 20.034C78.471 19.326 78.975 18.78 79.623 18.396C80.271 18 81.015 17.802 81.855 17.802C82.683 17.802 83.379 17.976 83.943 18.324C84.507 18.672 84.939 19.17 85.239 19.818C85.539 20.454 85.689 21.21 85.689 22.086V22.626H78.687V21.708H84.735L84.429 21.942C84.429 20.982 84.213 20.232 83.781 19.692C83.349 19.152 82.707 18.882 81.855 18.882C80.955 18.882 80.253 19.2 79.749 19.836C79.245 20.46 78.993 21.306 78.993 22.374V22.536C78.993 23.664 79.269 24.522 79.821 25.11C80.385 25.686 81.171 25.974 82.179 25.974C82.719 25.974 83.223 25.896 83.691 25.74C84.171 25.572 84.627 25.302 85.059 24.93L85.563 25.956C85.167 26.34 84.663 26.64 84.051 26.856C83.451 27.06 82.815 27.162 82.143 27.162ZM91.358 27.162C90.554 27.162 89.852 26.976 89.252 26.604C88.652 26.22 88.184 25.68 87.848 24.984C87.524 24.288 87.362 23.454 87.362 22.482C87.362 21.498 87.524 20.658 87.848 19.962C88.184 19.266 88.652 18.732 89.252 18.36C89.852 17.988 90.554 17.802 91.358 17.802C92.174 17.802 92.876 18.012 93.464 18.432C94.064 18.84 94.46 19.398 94.652 20.106H94.436L94.634 17.964H96.038C96.002 18.312 95.966 18.666 95.93 19.026C95.906 19.374 95.894 19.716 95.894 20.052V27H94.436V24.876H94.634C94.442 25.584 94.046 26.142 93.446 26.55C92.846 26.958 92.15 27.162 91.358 27.162ZM91.646 25.974C92.51 25.974 93.194 25.68 93.698 25.092C94.202 24.492 94.454 23.622 94.454 22.482C94.454 21.33 94.202 20.46 93.698 19.872C93.194 19.272 92.51 18.972 91.646 18.972C90.794 18.972 90.11 19.272 89.594 19.872C89.09 20.46 88.838 21.33 88.838 22.482C88.838 23.622 89.09 24.492 89.594 25.092C90.11 25.68 90.794 25.974 91.646 25.974ZM101.899 27.162C100.831 27.162 100.021 26.868 99.469 26.28C98.929 25.692 98.659 24.792 98.659 23.58V17.964H100.117V23.544C100.117 24.372 100.285 24.984 100.621 25.38C100.957 25.764 101.479 25.956 102.187 25.956C102.979 25.956 103.615 25.698 104.095 25.182C104.575 24.666 104.815 23.976 104.815 23.112V17.964H106.273V27H104.851V24.966H105.085C104.833 25.662 104.425 26.202 103.861 26.586C103.309 26.97 102.655 27.162 101.899 27.162ZM107.878 27L111.928 21.978V22.698L108.094 17.964H109.858L112.756 21.654H112.234L115.114 17.964H116.86L113.08 22.68V22.014L117.094 27H115.312L112.216 23.058H112.756L109.624 27H107.878Z" fill="white"/>
</svg>
