<svg width="130" height="39" viewBox="0 0 130 39" fill="none" xmlns="http://www.w3.org/2000/svg">
<rect x="1" y="1" width="128" height="37" rx="6" fill="#BE1C1C" stroke="#6E0D0D" stroke-width="2"/>
<path d="M13.1909 27V14.31H14.4869L19.5809 25.812H19.0589L24.1529 14.31H25.4489V27H24.0809V16.236H24.6209L19.8149 27H18.8249L14.0009 16.236H14.5409V27H13.1909ZM28.102 31.086L27.76 29.88C28.324 29.748 28.792 29.592 29.164 29.412C29.548 29.244 29.866 29.016 30.118 28.728C30.37 28.44 30.586 28.08 30.766 27.648L31.234 26.586L31.198 27.198L27.256 17.964H28.84L32.098 25.902H31.63L34.852 17.964H36.382L32.206 27.756C31.966 28.332 31.702 28.812 31.414 29.196C31.126 29.592 30.814 29.91 30.478 30.15C30.154 30.402 29.794 30.6 29.398 30.744C29.002 30.888 28.57 31.002 28.102 31.086ZM42.7179 27V20.052C42.7179 19.716 42.6999 19.374 42.6639 19.026C42.6399 18.666 42.6099 18.312 42.5739 17.964H43.9779L44.1579 19.944H43.9419C44.2059 19.248 44.6259 18.72 45.2019 18.36C45.7899 17.988 46.4679 17.802 47.2359 17.802C48.3039 17.802 49.1079 18.09 49.6479 18.666C50.1999 19.23 50.4759 20.124 50.4759 21.348V27H49.0179V21.438C49.0179 20.586 48.8439 19.968 48.4959 19.584C48.1599 19.188 47.6319 18.99 46.9119 18.99C46.0719 18.99 45.4059 19.248 44.9139 19.764C44.4219 20.28 44.1759 20.97 44.1759 21.834V27H42.7179ZM57.2788 27.162C55.8628 27.162 54.7468 26.754 53.9308 25.938C53.1148 25.11 52.7068 23.964 52.7068 22.5C52.7068 21.552 52.8868 20.73 53.2468 20.034C53.6068 19.326 54.1108 18.78 54.7588 18.396C55.4068 18 56.1508 17.802 56.9908 17.802C57.8188 17.802 58.5148 17.976 59.0788 18.324C59.6428 18.672 60.0748 19.17 60.3748 19.818C60.6748 20.454 60.8248 21.21 60.8248 22.086V22.626H53.8228V21.708H59.8708L59.5648 21.942C59.5648 20.982 59.3488 20.232 58.9168 19.692C58.4848 19.152 57.8428 18.882 56.9908 18.882C56.0908 18.882 55.3888 19.2 54.8848 19.836C54.3808 20.46 54.1288 21.306 54.1288 22.374V22.536C54.1288 23.664 54.4048 24.522 54.9568 25.11C55.5208 25.686 56.3068 25.974 57.3148 25.974C57.8548 25.974 58.3588 25.896 58.8268 25.74C59.3068 25.572 59.7628 25.302 60.1948 24.93L60.6988 25.956C60.3028 26.34 59.7988 26.64 59.1868 26.856C58.5868 27.06 57.9508 27.162 57.2788 27.162ZM66.2598 27.162C65.3718 27.162 64.6938 26.91 64.2258 26.406C63.7578 25.89 63.5238 25.116 63.5238 24.084V19.098H61.7598V17.964H63.5238V15.498L64.9818 15.084V17.964H67.5738V19.098H64.9818V23.922C64.9818 24.642 65.1018 25.158 65.3418 25.47C65.5938 25.77 65.9658 25.92 66.4578 25.92C66.6858 25.92 66.8898 25.902 67.0698 25.866C67.2498 25.818 67.4118 25.764 67.5558 25.704V26.928C67.3878 27 67.1838 27.054 66.9438 27.09C66.7158 27.138 66.4878 27.162 66.2598 27.162ZM71.8662 27L68.5182 17.964H70.0662L72.8562 25.92H72.3882L75.2682 17.964H76.5282L79.3542 25.92H78.9042L81.7122 17.964H83.1882L79.8222 27H78.4182L75.5022 18.918H76.2222L73.2882 27H71.8662ZM88.6837 27.162C87.8197 27.162 87.0637 26.976 86.4157 26.604C85.7797 26.22 85.2877 25.68 84.9397 24.984C84.5917 24.276 84.4177 23.442 84.4177 22.482C84.4177 21.51 84.5917 20.676 84.9397 19.98C85.2877 19.284 85.7797 18.75 86.4157 18.378C87.0637 17.994 87.8197 17.802 88.6837 17.802C89.5597 17.802 90.3157 17.994 90.9517 18.378C91.5997 18.75 92.0977 19.284 92.4457 19.98C92.8057 20.676 92.9857 21.51 92.9857 22.482C92.9857 23.442 92.8057 24.276 92.4457 24.984C92.0977 25.68 91.5997 26.22 90.9517 26.604C90.3157 26.976 89.5597 27.162 88.6837 27.162ZM88.6837 25.974C89.5477 25.974 90.2317 25.68 90.7357 25.092C91.2397 24.492 91.4917 23.622 91.4917 22.482C91.4917 21.33 91.2337 20.46 90.7177 19.872C90.2137 19.272 89.5357 18.972 88.6837 18.972C87.8317 18.972 87.1537 19.272 86.6497 19.872C86.1457 20.46 85.8937 21.33 85.8937 22.482C85.8937 23.622 86.1457 24.492 86.6497 25.092C87.1537 25.68 87.8317 25.974 88.6837 25.974ZM95.2229 27V20.142C95.2229 19.782 95.2109 19.416 95.1869 19.044C95.1749 18.672 95.1509 18.312 95.1149 17.964H96.5189L96.6989 20.16L96.4469 20.178C96.5669 19.638 96.7769 19.194 97.0769 18.846C97.3769 18.498 97.7309 18.24 98.1389 18.072C98.5469 17.892 98.9729 17.802 99.4169 17.802C99.5969 17.802 99.7529 17.808 99.8849 17.82C100.029 17.832 100.161 17.862 100.281 17.91L100.263 19.206C100.083 19.146 99.9149 19.11 99.7589 19.098C99.6149 19.074 99.4469 19.062 99.2549 19.062C98.7269 19.062 98.2649 19.188 97.8689 19.44C97.4849 19.692 97.1909 20.016 96.9869 20.412C96.7949 20.808 96.6989 21.228 96.6989 21.672V27H95.2229ZM101.798 27V13.752H103.256V21.978H103.292L107.486 17.964H109.322L104.372 22.68L104.408 21.942L109.79 27H107.9L103.292 22.752H103.256V27H101.798ZM113.909 27.162C113.189 27.162 112.517 27.066 111.893 26.874C111.269 26.67 110.753 26.388 110.345 26.028L110.849 25.002C111.293 25.35 111.773 25.608 112.289 25.776C112.817 25.944 113.363 26.028 113.927 26.028C114.647 26.028 115.187 25.902 115.547 25.65C115.919 25.386 116.105 25.026 116.105 24.57C116.105 24.222 115.985 23.946 115.745 23.742C115.517 23.526 115.139 23.358 114.611 23.238L112.937 22.896C112.169 22.728 111.593 22.446 111.209 22.05C110.825 21.642 110.633 21.126 110.633 20.502C110.633 19.974 110.771 19.512 111.047 19.116C111.323 18.708 111.725 18.39 112.253 18.162C112.781 17.922 113.399 17.802 114.107 17.802C114.767 17.802 115.373 17.904 115.925 18.108C116.489 18.3 116.957 18.582 117.329 18.954L116.807 19.962C116.447 19.614 116.033 19.356 115.565 19.188C115.109 19.008 114.635 18.918 114.143 18.918C113.435 18.918 112.901 19.062 112.541 19.35C112.193 19.626 112.019 19.992 112.019 20.448C112.019 20.796 112.127 21.084 112.343 21.312C112.571 21.528 112.919 21.69 113.387 21.798L115.061 22.14C115.877 22.32 116.483 22.602 116.879 22.986C117.287 23.358 117.491 23.862 117.491 24.498C117.491 25.038 117.341 25.512 117.041 25.92C116.741 26.316 116.321 26.622 115.781 26.838C115.253 27.054 114.629 27.162 113.909 27.162Z" fill="white"/>
</svg>
